<?xml version="1.0" encoding="UTF-8"?><svg id="Layer_1" xmlns="http://www.w3.org/2000/svg" viewBox="0 0 72 72"><polygon points="52.47 16.01 52.54 16.55 51.73 16.71 51.63 17.85 52.59 17.85 53.86 17.73 54.52 16.95 53.82 16.67 53.44 16.23 52.86 15.3 52.59 13.98 51.5 14.2 51.2 14.67 51.2 15.19 51.72 15.55 52.47 16.01" style="fill:#105c90;"/><polygon points="51.54 16.45 51.6 15.74 50.97 15.46 50.08 15.67 49.42 16.73 49.42 17.41 50.19 17.41 51.54 16.45" style="fill:#105c90;"/><path d="m33.26,19.48l-.2.5h-.95v.49h.23s.01.1.03.24l.58-.05.36-.23.09-.45.47-.04.19-.38-.43-.09h-.38Z" style="fill:#105c90;"/><polygon points="30.82 20.37 30.78 20.85 31.47 20.79 31.54 20.31 31.13 19.99 30.82 20.37" style="fill:#105c90;"/><path d="m71.99,35.63c-.01-1.05-.06-2.1-.16-3.13-.33-3.43-1.15-6.72-2.38-9.8-.09-.23-.18-.46-.27-.69-1.64-3.87-3.94-7.39-6.75-10.43-.19-.2-.37-.39-.56-.59-.53-.55-1.08-1.09-1.64-1.61C53.82,3.56,45.32,0,36,0S18.04,3.62,11.63,9.54c-1.5,1.38-2.87,2.88-4.12,4.49C2.81,20.11,0,27.73,0,36c0,19.85,16.15,36,36,36,13.96,0,26.09-8,32.05-19.65,1.28-2.49,2.27-5.15,2.94-7.93.17-.71.32-1.42.44-2.13.36-2.04.56-4.15.56-6.29,0-.12,0-.25,0-.37Zm-6.78-14.39l.21-.23c.27.53.53,1.07.77,1.62h-.34s-.64.08-.64.08v-1.46Zm-5.2-6.28v-1.61c.57.6,1.12,1.22,1.64,1.86l-.65.97-2.27-.02-.14-.47,1.42-.72Zm-43.43-4v-.06h.72l.06-.25h1.18v.52l-.34.45h-1.63v-.66h0Zm1.15,1.61s.72-.12.78-.12,0,.72,0,.72l-1.63.1-.31-.37,1.15-.33Zm49.77,14.29h-2.63l-1.61-1.19-1.69.16v1.03h-.53l-.58-.41-2.93-.74v-1.9l-3.71.29-1.15.62h-1.47l-.72-.07-1.79.99v1.87l-3.65,2.64.3,1.13h.74l-.19,1.07-.52.19-.03,2.8,3.16,3.6h1.37l.08-.22h2.47l.71-.66h1.4l.77.77,2.09.22-.28,2.78,2.32,4.09-1.22,2.33.08,1.1.96.96v2.64l1.26,1.7v2.19h1.09c-6.07,7.45-15.3,12.22-25.62,12.22-18.22,0-33.04-14.82-33.04-33.04,0-4.59.94-8.96,2.64-12.93v-1.03l1.18-1.43c.41-.77.85-1.53,1.32-2.27l.05.6-1.37,1.67c-.42.8-.82,1.62-1.18,2.47v1.88l1.37.66v2.61l1.32,2.25,1.07.16.14-.77-1.26-1.95-.25-1.89h.74l.31,1.95,1.83,2.66-.47.86,1.16,1.78,2.88.71v-.47l1.15.16-.11.82.91.17,1.4.38,1.98,2.25,2.52.19.25,2.06-1.73,1.21-.08,1.84-.25,1.13,2.5,3.13.19,1.07s.91.25,1.02.25,2.03,1.46,2.03,1.46v5.65l.69.19-.47,2.61,1.15,1.54-.21,2.59,1.52,2.68,1.96,1.71,1.97.04.19-.63-1.45-1.22.08-.6.26-.74.05-.76-.98-.03-.49-.62.81-.78.11-.59-.91-.26.05-.55,1.29-.2,1.96-.94.66-1.21,2.06-2.64-.47-2.06.63-1.1,1.89.06,1.27-1.01.41-3.98,1.41-1.8.25-1.15-1.29-.41-.85-1.4-2.91-.03-2.31-.88-.11-1.65-.77-1.35-2.09-.03-1.21-1.89-1.07-.52-.05.58-1.95.12-.71-.99-2.03-.41-1.67,1.94-2.64-.45-.19-2.97-1.92-.33.77-1.46-.22-.84-2.53,1.69-1.59-.19-.57-1.24.35-1.28.88-1.62,2.02-1.02h3.9s-.01,1.19-.01,1.19l1.4.65-.11-2.03,1.01-1.02,2.04-1.34.14-.94,2.03-2.11,2.16-1.2-.19-.16,1.46-1.38.54.14.25.31.56-.62.14-.06-.61-.09-.62-.21v-.59l.33-.27h.72l.33.15.29.58.35-.05v-.05l.1.03,1.01-.16.14-.49.58.15v.54l-.54.37h0l.08.59,1.83.57s0,0,0,.02l.42-.04.03-.8-1.45-.66-.08-.38,1.21-.41.05-1.15-1.26-.77-.08-1.95-1.73.85h-.63l.17-1.48-2.35-.56-.97.74v2.24l-1.75.56-.7,1.46-.76.12v-1.87l-1.65-.23-.82-.54-.33-1.21,2.95-1.72,1.44-.44.15.97.8-.04.06-.49.84-.12v-.17s-.35-.15-.35-.15l-.08-.52,1.03-.09.62-.65.03-.05h0s.19-.19.19-.19l2.17-.27.96.81-2.52,1.34,3.2.76.41-1.07h1.4l.49-.93-.99-.25v-1.18l-3.1-1.37-2.14.25-1.21.63.08,1.54-1.26-.19-.19-.85,1.21-1.1-2.2-.11-.63.19-.27.74.82.14-.16.82-1.4.08-.22.55-2.03.06s-.06-1.15-.14-1.15,1.59-.03,1.59-.03l1.21-1.18-.66-.33-.88.85-1.46-.08-.88-1.21h-1.87l-1.95,1.46h1.79l.16.52-.46.43,1.98.05.3.71-2.23-.08-.11-.55-1.4-.3-.74-.41h-1.67c5.45-3.96,12.16-6.31,19.41-6.31,8.35,0,15.99,3.12,21.81,8.25l-.39.7-1.52.6-.64.7.15.81.79.11.47,1.18,1.36-.55.22,1.58h-.41l-1.11-.16-1.23.21-1.19,1.69-1.71.27-.25,1.46.72.17-.21.94-1.7-.34-1.56.34-.33.87.27,1.82.91.43h1.53s1.04-.1,1.04-.1l.32-.82,1.62-2.1,1.06.22,1.05-.95.2.74,2.58,1.74-.32.42-1.16-.06.45.63.72.16.84-.35-.02-1.01.37-.19-.3-.32-1.72-.96-.45-1.27h1.43l.46.45,1.23,1.06.05,1.28,1.28,1.36.48-1.86.88-.48.17,1.52.86.95,1.72-.03c.33.86.63,1.73.89,2.62l-.18.17Zm-47.87-10.5l.86-.41.78.19-.27,1.05-.84.27-.53-1.09Zm4.59,2.47v.68h-1.98l-.74-.21.19-.47.95-.39h1.3v.39h.28Zm.91.95v.66l-.49.32-.62.11v-1.09h1.11Zm-.56-.27v-.78l.68.62-.68.16Zm.31,1.58v.64l-.47.47h-1.05l.16-.72.5-.04.1-.25.76-.11Zm-2.61-1.32h1.09l-1.4,1.96-.58-.31.12-.82.76-.82Zm4.47,1.09v.64h-1.05l-.29-.41v-.6h.08l1.25.37Zm-.97-.88l.3-.31.5.31-.4.33-.4-.33Zm42.28,8.54l.1-.12c.04.19.09.37.13.56l-.23-.44Z" style="fill:#105c90;"/><path d="m5.6,22.04v1.03c.36-.84.76-1.66,1.18-2.47l-1.18,1.43Z" style="fill:#105c90;"/></svg>