<?xml version="1.0" encoding="utf-8"?>
<!-- Generator: Adobe Illustrator 27.6.1, SVG Export Plug-In . SVG Version: 6.00 Build 0)  -->
<svg version="1.1" id="Layer_1" xmlns="http://www.w3.org/2000/svg" xmlns:xlink="http://www.w3.org/1999/xlink" x="0px" y="0px"
	 viewBox="0 0 72 72" style="enable-background:new 0 0 72 72;" xml:space="preserve">
<style type="text/css">
	.st0{fill:#1A305B;}
</style>
<path id="AU-NT" class="st0" d="M31.8,6.7L31.8,6.7l0.1-0.2l-0.2-0.2l0.1-0.1l0.1,0H32l0-0.1L32,6l0-0.1l0-0.1h0.2l0.2,0.1h0.2
	l0.2,0.1h0.1l0.8,0l0.2,0.1l0.3-0.2h0.2l0.1,0.2l-0.1,0.1l0.1-0.1v0l0-0.2l0-0.1l0.2-0.1L35,5.8h0.1l-0.1,0l-0.1-0.1l0-0.1V5.1
	L35,4.9l-0.3-0.2l-0.1-0.1l-0.1-0.1l-0.1,0l-0.2,0L34,4.7h0l-0.2-0.2l0-0.1l-0.2-0.1h-0.2h0l0.2-0.2L33.8,4L34,4.2l0.1,0.3h0.1
	l0-0.1l-0.1-0.2L34,4h0.1l0.2,0L34.4,4l0.3,0.2l0,0.1L35,4.7l0.1,0l0.1-0.1l0.2-0.3h0.1l0.1,0.2L35.8,5L35.9,5l0.1,0L36.1,5h0.1
	l0.1,0.1l0.2,0.1h0.1l0.1,0l0.2-0.1L37,5l0.2,0l0,0.1l-0.1,0.1l0,0v0l0.1,0.1l0.1,0.1l0.1-0.1l0-0.1h0l0.2,0.2l0,0l0,0.1l0,0l0.3,0
	l0.1,0h0.2h0.2l0.1-0.1h0.2l0.2,0.2l0.2,0.1L39.3,6l0.2,0l0.1,0v0l0.1-0.2l0.1-0.1l0.1,0l0.1,0.1l0.3,0l0.1-0.1l0,0l-0.1,0.1l0,0
	l0-0.1l0.2,0h0.1l0.2-0.2V5.1h0.1l0.1,0.1l0,0.1l-0.3,0.3l0.1,0.1l-0.2,0.2v0.1l0,0.1l0.1,0.1l0.1,0l0-0.1l0.1-0.1l0.2-0.1l-0.2,0.2
	L40.8,6L41,6L41,6l-0.1,0.2l0,0.1l0,0.1L41,6.4h0.1l0,0h0.1l0.1-0.1L41.5,6l0-0.1l-0.2,0l-0.1-0.1v0l0.2-0.2l0.3-0.2l0.2,0l0,0.1
	l0.1,0.3L42,6.1h0.1L42.2,6v0l-0.1,0v0l0.2,0L42.4,6l0.2,0.2l-0.3,0.2l-0.1,0.1L42,6.8l0,0.2L41.7,7l0,0.1l0.1,0.2v0.2l0,0.2
	l-0.1,0.2l0-0.1l-0.1,0.1V7.5l0,0h-0.1l-0.1,0.2l-0.2,0.1h-0.1l0-0.1l-0.1,0l-0.2,0.1l-0.1,0.1L40.7,8v0l0.1,0.1l0,0.1l-0.1,0.1
	l0,0.2l0.1,0.2l0.1,0l0.1,0l0.1-0.1v0.1l-0.1,0.2l-0.1,0.2l0,0.3l0,0.1l-0.2,0.1L40.2,10l-0.1,0.2v0.1l-0.2,0.1h-0.1l0.1,0.3
	l0.1,0.1l0.1,0.1l0.2,0.1l0.3,0.2l0.2,0.1l0.5,0.2l0,0l0,0.2l0.1,0.1l0.4,0.2l0.2,0.1l0.2,0.2l0.5,0l0.2,0.1l0.4,0.3l0.2,0.1h0.1
	l0.2,0.1l0.2,0.1l0.2,0.3l0.2,0.2l0,0v17.9h-12h-2.4h-1.6V15.1l0,0v-3.4l0,0v-1l0,0l0.2,0.1l0.2,0.1l0,0.3l0,0l0.1-0.1l-0.1-0.4l0,0
	l0.2,0.1l0.2,0.1l0.4,0.4v0.1l0.1,0l-0.1-0.2L29.6,11l0-0.1l0-0.1l0-0.1l0.3,0.1l0.1,0l0.1-0.1l-0.3,0.1l-0.2-0.1l-0.1-0.2l0-0.1
	l0.1,0h0.1l0.1-0.1v0l-0.2,0.1l-0.2,0l-0.1-0.1l-0.2-0.2l0-0.1l0.1-0.2l0.1-0.1l0.4-0.3l0.1-0.4V8.6L30,8.3l0.1-0.1l0,0.1l0.1,0
	l0.2,0l0.2-0.1L30.8,8l0-0.1l-0.1-0.2l-0.1-0.1h-0.1l0-0.1l0-0.3l0-0.1l0.1,0l0,0.1l0,0h0.1l0.1-0.1l0-0.1l0-0.2l0-0.1l0.3-0.1
	l0.2,0.2h0.2l-0.1-0.1l0-0.2l0-0.1V6.3l0,0l0.1,0l0.2,0.1L31.8,6.7L31.8,6.7z M31.9,5.4l-0.2-0.1l-0.3-0.1l-0.3-0.3L31,4.6l-0.1-0.3
	V4.1l0,0l0.2,0.2l0.1,0.1l0.2,0.1l0.2-0.1l0.1-0.1L32,4.4l0.2-0.2h0l0,0.1l0.1,0.1V4.4l0-0.2l0-0.1l0.1-0.1l0.3,0.1L33,4.4v0.1
	l-0.4,0.5h-0.1l-0.2,0.2L31.9,5.4L31.9,5.4L31.9,5.4z M42.4,9.5L42.4,9.5l0.1-0.1l0,0.2l-0.1,0l-0.2-0.1l-0.2,0l-0.5-0.1l0.1-0.3
	V9.1l0-0.1l0-0.1l0.2-0.1l0.1,0l0-0.1l0.2-0.1h0.1l0,0.1l-0.1,0.1l0.1,0.2l0.2,0l0.1-0.1l0-0.1l0,0l0.1,0l0,0v0.1L42.3,9l-0.1,0.1
	l-0.1,0.2v0.2l0,0L42.4,9.5L42.4,9.5L42.4,9.5L42.4,9.5z M31.1,5.3l-0.3-0.1l-0.4,0.1l-0.1,0l0,0V5.1L30.3,5L30.4,5h0.1l0.1-0.1V4.7
	l0-0.1l0.1-0.2l0.2,0L31.1,5l0.1,0l0.1,0.1l0,0.1L31.1,5.3C31.1,5.3,31.1,5.3,31.1,5.3z M41.7,4.6L41.7,4.6L42,4.1l0.2-0.3l0.1,0
	l-0.1,0.3l-0.3,0.4L41.7,4.6L41.7,4.6L41.7,4.6z M34.8,4.4L34.8,4.4l-0.1-0.2l0-0.3l0.1,0l0.1,0.3v0.2L34.8,4.4L34.8,4.4L34.8,4.4z
	 M42.7,12.5L42.7,12.5l-0.2-0.2l0-0.1l0.1-0.1l0.1,0.1V12.5L42.7,12.5L42.7,12.5L42.7,12.5z M41.2,8.9L41.2,8.9l0-0.2l0,0L41.2,8.9
	L41,8.8l0,0l0-0.1l0.2-0.1h0.1l0.1,0.1l0,0.1L41.2,8.9L41.2,8.9L41.2,8.9z M41.2,5L41.2,5l0.2-0.2h0.1l0.2-0.2l0,0.1l-0.2,0.1
	L41.2,5L41.2,5z M41.8,12.1L41.8,12.1l0-0.2l0.1-0.1l0,0l0,0.2C41.9,12.1,41.8,12.1,41.8,12.1z"/>
<path id="AU-WA" class="st0" d="M2.4,31.6L2.4,31.6l0-0.3L2,30.9l-0.2-0.4l-0.2-0.5l-0.2-0.1l-0.2-0.5v-0.1v-0.2L1.1,29l-0.2-0.3
	l-0.1-0.2v-0.4L0.9,28l0-0.2l0.2-0.5L1.2,27l0.2-0.2l0-0.2l0-0.2l0-0.2l0.1-0.3l0-0.2l-0.1-0.3l-0.1-0.2l0-0.1l0.2-0.5l0.2-0.7
	L2,23.6l0.1-0.1l0.1,0l0,0l-0.1,0.2L2,24.3l0.1,0.2l-0.1,0.4L2.2,25l0.4-0.2l0-0.2l0.1-0.3L3,23.8l0-0.2l0.5-0.3h0.2l0.3-0.2L4.5,23
	l0.3-0.4l0.1-0.1l0.2-0.1l0.2-0.3L5.7,22l0.1-0.1l0.1-0.1H6l0.3-0.1l0.2-0.1l0.2-0.1l0.1,0l0.1,0.1l0.1,0l0.3-0.2l0.2,0.1l0.1,0.1
	l0.1,0.1l0.1,0h0.1l0.5-0.1l0.3-0.1L9.1,21l0.2-0.1l0,0h0.1l0.6-0.1h0.2l0.2-0.1l0.3-0.3l0.1-0.1l0.2-0.1l0.2,0l0.4,0.1l0.3,0.1
	l0.4-0.2l0.8-0.1l0.2-0.1l1-0.4l0.3-0.1l0.4-0.4l0.4-0.5l0.3-0.6l0.2-0.3l0-0.1l0.1-0.1l0,0l0.1,0l0.1,0l0.1-0.1l0.1-0.1l0.1,0
	l0.4-0.3l0-0.1v-0.1l-0.1,0l-0.1,0l-0.1-0.1l0-0.4l-0.1-0.3v-0.4l0.1-0.2l0.1-0.2l0.2-0.2l0.1-0.1H17l-0.1-0.2l0.1-0.1l0,0l0,0h0
	l0.2-0.1l0-0.1l0-0.1l0-0.2l0-0.1l0.1,0l0.1-0.1v-0.1l0-0.1l0.1-0.1l0.1,0.1l0,0.1h-0.1l-0.1,0.2l0.1,0.1l0.1,0.1l0,0.1l0.3,0.6
	l0.4,0.7l0,0.1l0-0.2l-0.1-0.1v-0.1l0.1-0.3l-0.1-0.2l0-0.1h0.1l0.2,0.3l0.1,0.1l0.1,0l0,0l-0.1,0l-0.1-0.1l-0.1-0.2l0.2-0.2l-0.1,0
	l-0.1,0l0,0L19,14.2L18.8,14v-0.2h-0.2l-0.1-0.1h0.1l0.3,0.1l0.1-0.2v-0.1v-0.1l-0.2,0l-0.1-0.1v-0.2l0-0.1L19,13l0.1,0.1l0,0.1
	l-0.1,0l0.2,0.2l0.1,0v-0.1l0.1-0.2l0.2,0l0.1,0l0,0l0.1,0.1l0,0h0.2l0.1-0.1l0.2,0.1l0.2,0l0.3,0l0.2,0.1l0.1,0h-0.1l-0.2-0.1
	l-0.1,0h-0.1l-0.1,0h-0.1l0,0l0-0.2l0.1-0.2l0.1,0l0.1,0.1l0.1-0.1v-0.2l0-0.2l0.2-0.2l-0.1,0l-0.1,0l-0.1,0.2h-0.1l-0.1-0.1l0-0.4
	l0.1-0.4l0.1,0l0.2,0.1l0.1-0.1l0-0.1l0-0.4l0.1,0l0.4,0.2l0.1,0.1l0.3,0.2l-0.2-0.2v0l0.1-0.1l0,0h-0.1l-0.2,0.1l0-0.1l0.1-0.1
	l0.1,0l0,0l0.1-0.1h-0.1l-0.2,0.1h0l0-0.1l0.1-0.1l0.1,0l0.1,0h0l0.1-0.1l0-0.1l0.1-0.1l0.1,0.3l0,0l0-0.1l0-0.2l0.2,0.1v0.1l0.1,0
	H22l0,0l0,0h0l0,0l0-0.1l-0.2-0.1l-0.2-0.1l0.1-0.1l0,0l-0.2-0.3l0.2-0.3l0.2-0.1l0.1,0h0.4l0-0.2l0-0.2l0-0.1l0,0l0.2,0.1l-0.1,0.6
	l0,0l0.1-0.4l0.2,0.1l0,0.2l0,0.1l0.1,0.1l0.2-0.2l0.1-0.1l0-0.3l0.1-0.3V9.4l-0.1-0.3L23.1,9l0.1,0l0.1,0l0.1,0.1v0.1l-0.1,0
	l0.1,0.2l0.1,0l0.1,0.1l0-0.1l0-0.1l0.1-0.2l0.2-0.1l0.1,0l-0.1,0.2l0.2,0.3l0.1,0l0.2-0.2l0.1-0.3l-0.1-0.3l0.2-0.1l0.2,0l0.1,0.1
	L25,8.9l0,0.1l0.1,0.1l0-0.1V9h0.2l0.3,0.1l0.2,0.2L26,9.5l0.5,0.7l0.1,0l0.3,0.3l0,0.2l-0.1,0.1l-0.1,0.4l0,0.2v0.4l-0.1,0.2
	l0.1-0.1l0-0.1l0.1-0.4l0.1,0l0.1,0.1l0,0.2v-0.2L27,11.3l-0.1-0.2l0.2-0.3h0l0,0.2h0.2l0-0.1l-0.1-0.1l-0.1-0.2l0.3-0.1l0.8,0.2
	l0,0v1l0,0v3.4l0,0v16.5l0,0l0,11.4l0,0L28,43.3l-0.4,0.2l-0.7,0.3l-0.3,0.1L26.1,44l-0.7,0.3L25,44.4l-0.8,0l-0.5,0l-0.4-0.1
	l-0.2,0.1l-0.2,0l-0.3,0.2l-0.5,0.4L22,44.9l-0.2,0l-0.5,0.3L21,45.5l-0.2,0.1l-0.6,0.1L20,45.8l-0.2,0.1l-0.1,0.2l-0.2,0.5L19.4,47
	l-0.2,0.1l-0.2,0.2L19,47.4v0.1L19,47.6l-0.3,0.2l-0.3,0l0,0l-0.1,0.1l-0.1,0.1L18,48l-0.1-0.3l-0.1-0.1l-0.3,0.1l-0.2,0H17l0,0
	l-0.2,0l-0.1,0l-0.1,0l-0.1,0.1l0,0.1l-0.2,0l-0.1,0l0-0.1l0-0.2L16,47.6h0l-0.1,0l-0.1,0.1l-0.1,0l-0.5-0.2H15l-0.2,0l-0.5,0.1H14
	l-0.1,0.1l-0.4,0.1l-0.2,0.1l-0.3-0.1l-0.4,0l-0.3,0.1L12,48l-0.2,0.1l-0.1,0.1l-0.1,0.3l0,0.1l-0.2,0.2L11,49l-0.2-0.1l-0.3,0
	l-0.3,0.2l0,0l0.1,0.1l-0.1,0.1L10,49.4l-0.3,0.1l-0.1,0.1l-0.1,0.1l-0.2,0.1L9,50.1l-0.4,0.1v0l0,0l0.2,0l-0.1,0.1l-0.1,0l-0.1-0.1
	l-0.1,0H8.3l-0.1,0l0,0.2l-0.1-0.1l-0.4-0.2H7l-0.1,0.1h0l-0.3-0.1l-0.2,0l-0.2-0.1l-0.4-0.3l-0.4-0.1l-0.1-0.2L5,49.3L4.7,49
	l-0.3-0.2l-0.3-0.2H4l-0.1,0l-0.1,0.1l-0.2-0.2v-0.2l-0.1-0.7v-0.4L3.6,47l0.1,0l0.1,0.2L4,47.2h0.2l0.1-0.1l0.1,0l0.5-0.7l-0.1-0.6
	l-0.1-0.7l0-0.1l0.1-0.2v0.1L4.7,45v0.1l0.1,0.2l0.1,0.1l0,0v-0.1L4.9,45l-0.1-0.5l0-0.3l0-0.2v-0.4l-0.1-0.4l0-0.1l-0.4-0.8
	l-0.1-0.4l-0.1-0.2l-0.2-0.4l-0.2-0.5v-0.1l0-0.4l-0.1-0.4l0,0V39l0.1-0.4l-0.1-0.3l0-0.1l0-0.2l-0.1-0.2l-0.4-0.5l0-0.2v-0.3
	l-0.2-0.3l-0.3-0.5L2.2,36l-0.1-0.2L2,35.3l0-0.2L2,35l0-0.2l-0.1-0.3L1.7,34l-0.2-0.5L1.1,33l-0.5-0.6l-0.1-0.3L0.5,32v-0.2v0l0,0
	l0,0.4l0.1,0.1l0.1-0.3l0.3,0.3l0,0.1l0,0.3l0,0.1L1.2,33h0.1v0l0.1-0.1l0.1,0l0.1-0.2v-0.3l-0.1-0.2L1.2,32L1,31.8l-0.1-0.4
	l-0.2-0.3l0-0.2l0.1-0.2l0.1,0l0.2,0.3l0.2,0.2l0.1,0.2l0,0.2l0,0v0.2L1.3,32h0.1L1.4,32l0.1-0.3l0.1,0.5l0,0.1l0.2,0.3l0.2-0.2
	l0-0.2l0-0.1l0-0.1l0.1-0.4l0.1,0l0,0L2.4,31.6z M0.5,31.9L0.5,31.9l-0.3-0.4l-0.1-0.3L0,30.9v-0.2l0.1-0.1l0.1,0l0,0.1v0l0.2,0.6
	l0.2,0.3L0.5,31.9L0.5,31.9L0.5,31.9z M20.5,11.8L20.5,11.8l-0.1-0.1v-0.1l0.1-0.1l0.1-0.1l0.1,0.3L20.5,11.8z M4.3,21.8L4.3,21.8
	L4.3,21.8l-0.1,0v-0.1l0.2-0.2l0.1,0h0l0,0.1v0.1L4.3,21.8L4.3,21.8L4.3,21.8z M21.6,10.3L21.6,10.3l-0.1-0.2l0-0.1l0.1-0.1l0.1,0.1
	L21.6,10.3L21.6,10.3C21.6,10.3,21.6,10.3,21.6,10.3z"/>
<path id="AU-ACT" class="st0" d="M63.9,52L63.7,52l-0.2-0.3l0-0.1v-0.3l0.1-0.4l0.5-0.3l0.2,0.1l0.1,0.1l0.2,0.1l0.1,0.1l-0.1,0.1
	l-0.2,0l-0.1,0.1L64.1,51L64,51.4l0,0.5v0.1L63.9,52L63.9,52z"/>
<path id="AU-NSW" class="st0" d="M65.6,55.5L62.4,54h-0.2l0.1-0.3l0-0.2l-0.2-0.3l-0.1-0.1l-0.1-0.7l-0.2-0.1l-0.3-0.1l-0.2,0.1
	l-0.2,0l-0.2,0l-0.2,0.2h-0.2l-0.3,0.1l-0.2,0l-0.4-0.1l-0.2-0.1l-0.2,0h-0.1l-0.1,0.1l-0.2,0.1l-0.4,0l-0.5-0.1l-0.1,0L57.9,52
	l-0.1-0.1h0l-0.1,0L57.4,52h-0.2l-0.1-0.1H57L56.7,52l0,0l-0.1,0.2l0,0.2l-0.3,0.1l-0.1,0l-0.2-0.1L55.7,52l-0.1-0.2l0,0l-0.1,0
	l-0.2-0.2l-0.1-0.2l-0.3-0.2L54.6,51l-0.1,0l-0.1,0l-0.1-0.1l0,0l0-0.1l-0.1-0.1l-0.1,0L54,50.5l-0.1-0.2l0-0.3l0-0.2v-0.1l0,0
	l-0.4-0.2l-0.3,0L53,49.3l0-0.1l-0.1-0.1l-0.1,0l0,0l-0.1,0.2l-0.1,0.1l-0.2,0l-0.1-0.1v0l-0.1-0.2l-0.2-0.1v-0.3l-0.2-0.4l-0.1-0.1
	l-0.2-0.1l-0.3,0.1L51,48.2l-0.2,0.1l-0.1,0.1l-0.1,0l0,0l-0.2-0.1l-0.3-0.1l-0.3,0h0L49.7,48l0,0V37.6h0.2h3.5h10.3l0.1-0.1
	l0.2-0.3l0.6-0.5l0.2,0H65l0,0.1l0.2,0l0.5,0l0.2-0.1l0.2,0h0.1l0.1,0.2l0.1,0.1h0.3l0.3,0l0.4,0.2l0.4,0.4l0,0.3l0.1,0.2l0,0l0.1,0
	l0.1-0.1l0.2-0.3l0.3-0.1l0.1,0.1l0.1,0l0.3-0.2l0.1-0.3l-0.2-0.4l0.2-0.1l0.2-0.1l0.3-0.1l0.1,0l0-0.1l0.1-0.1h0.1l0.1,0.1l0.3,0.1
	l0.3,0l0.3,0l0.1-0.2l0.2,0l0.2-0.1l0.1-0.1l0,0L72,36l0,0.1l-0.1,0.4l0,0.2l0.1,0.1l0,0.4l-0.3,0.4l-0.2,0.6l0.1,0.1l-0.2,1.1
	l-0.1,0.3L71,40.8l0,0.5l0,0.1H71l0,0.1l-0.2,0.6l0,0.2L70.7,43l-0.2,0.3l-0.4,0.5L70.1,44l0.1,0.3l0,0.3l-0.3,0.3L69.7,45l-0.3,0.2
	v0.1l0,0.1l-0.3,0.1l-0.2,0.1l-0.2,0.4l-0.2,0.4l0,0h-0.1l-0.1,0.1l0,0.1l0.1,0.1l-0.1,0.2L68,47.1l-0.1,0.6l0,0.2l-0.1,0h-0.1
	l-0.1,0l0.1,0l0.1,0.1l-0.1,0.2l-0.2,0.1l-0.2,0.2l-0.2,0.5l0.1,0.1l-0.1,0.4L67,49.7l0,0.1L67,50l0.1,0.1l0,0.1l-0.1,0L67,50.2l0,0
	l0-0.1h-0.1l-0.1,0.1v0.1l0,0.1l-0.1,0.1l-0.2,0.1l-0.1,0.2v0.1l-0.1,0.4l-0.1,0.1l-0.3,0.8l0,0.4v0.5L65.8,53l-0.1,0.5l-0.1,0.4
	l-0.1,0.3v0.3l0.2,0.2l0,0.2V55l-0.1,0L65.5,55v0.3L65.6,55.5L65.6,55.5L65.6,55.5z M64,51.9L64,51.9l0-0.5l0.1-0.4l0.1-0.1l0.1-0.1
	l0.2,0l0.1-0.1l-0.1-0.1l-0.2-0.1l-0.1-0.1L64,50.4l-0.5,0.3l-0.1,0.4v0.3l0,0.1l0.2,0.3l0,0l0.2,0.1L64,51.9L64,51.9L64,51.9z"/>
<path id="AU-SA" class="st0" d="M41.4,48.3l-0.2,0.3l-0.1,0.1l-0.2,0.3l-0.2,0.1l-0.1,0.2l-0.1,0.4l0,0h0.1l0.2-0.2l0,0.1l0,0.4
	l-0.1,0l0-0.1l-0.2-0.2l-0.1-0.1l-0.1,0L40.3,50h-0.1l-0.1-0.1l-0.2-0.3l-0.3-0.3l-0.1-0.1l-0.1,0l-0.2,0.1l0.1-0.2l0.1-0.1V49
	l0.2,0.2l0.1,0.1l0.2-0.1l-0.2-0.1l0-0.1V49l0-0.1l-0.1-0.4l-0.1-0.4l0-0.2l-0.1-0.2l-0.3-0.3l-0.3-0.3l0-0.2l0-0.2l-0.1-0.2
	l-0.2-0.4l-0.2-0.1l-0.3,0l-0.1,0.1l-0.1-0.1v0l-0.1-0.3l-0.2-0.5h0.1l0.1,0.1l0,0.1l0.1-0.2l0-0.1l0-0.2l-0.1-0.2l-0.1-0.1h0
	l-0.3,0.1l-0.1,0.1H37v-0.2l0-0.1l0.1,0l0,0L37,44.2l-0.2-0.1L36.7,44l0-0.1l-0.1,0l0,0l0,0.1l-0.1,0.1l-0.6,0h0L35.6,44l-0.2-0.1
	l-0.2-0.2l-0.1,0l-0.4,0l-0.2,0l-0.1,0.1l-0.2,0h-0.1l-0.1,0l-0.3-0.3l-0.5-0.3l-0.7-0.4l-0.4-0.1h-0.1L32,42.8l-0.3,0.1h-0.1
	l-0.9-0.1h-0.2l-0.4,0l-0.2,0L28.8,43l-0.4,0.1l0,0V31.6H30h2.4h12h5.3v6l0,0V48l0,0l0-0.1v8.9l0,0l-0.2,0l-0.1,0h-0.1l-0.3-0.2
	l-0.3-0.3l-0.2-0.4l-0.2-0.3L48,55.5h-0.1l-0.3-0.4l-0.1-0.2l0.1-0.1v-0.1l-0.1-0.2l0-0.2l0.1-0.1l0.1-0.2v-0.3l-0.1-0.2l-0.3-0.8
	L46.8,52l-0.3-0.3l-0.2-0.2l0.1,0l0.5,0.4l0.3,0.4l0.1,0.3l0-0.2l-0.1-0.2l-0.1-0.1L46.9,52l-0.6-0.6v-0.2l0.1,0l0.1,0.1l0,0.3l0,0
	l0.2,0l0-0.2l0-0.3l0-0.2l-0.2-0.1l-0.1,0.1l-0.1,0h-0.1l-0.1,0l0,0.1l0,0.1l0.1,0l0,0l-0.1,0.1l-0.5,0l-0.1,0l-0.1,0.1l-0.1,0.1
	l-0.6,0l-0.1-0.1l0.1-0.2l0.2-0.1l0.3-0.3l0-0.3l0-0.1l0-0.1l0.1-0.2l-0.1-0.3l0-0.2v-0.1l-0.1-0.2l-0.3-0.3l-0.1-0.3l-0.2-0.4h0
	l-0.1,0.3l0,0.1l0,0.1l-0.2,0.2L44.2,49l0,0.4l-0.2,0.7v0.2l-0.1,0.1l-0.2-0.1l-0.1,0h-0.1L43,50.4l-0.1,0.1l0,0l-0.2,0l-0.1,0.1
	l-0.1,0l-0.1,0l0-0.1l0.1-0.1l0.1-0.1l0-0.1l0-0.3l0.1-0.1l0.2,0.1l0.2,0h0.2l0,0l0.2,0.1l0.1,0l0-0.1l0.1-0.5l0-0.4l0-0.4l-0.1-0.3
	l0,0h0.1l0-0.1l0.1-0.3v-0.2l0.3-0.4l0.2-0.2l0.1,0l0-0.1l-0.1-0.2L44,46.4l0-0.2l0.1-0.1l0.1,0h0.1l0,0V46l-0.1-0.1l-0.1,0
	l-0.1-0.5l-0.1-0.2l0-0.2l-0.1-0.1v0.3l0,0l0,0.1v0.2l0,0.3h-0.1l-0.2,0.1l-0.2,0.2l-0.2,0.4v0.2l0,0.1L43,47.2l-0.1,0.1h-0.2
	l-0.1-0.1l-0.1,0.2l0,0l-0.1,0.1l-0.5,0.3L41.6,48l-0.1,0.1v0.1L41.4,48.3L41.4,48.3L41.4,48.3z M44.2,51.6l0.3,0.1l0.1,0.1v0.1
	l-0.1,0.1L44.2,52l-0.3,0l-0.2,0.1l0,0l0,0.2l0,0l-0.2,0.1l-0.2-0.2l-0.2,0l-0.1,0l0,0.1l0,0l-0.2,0l-0.2,0h-0.3l-0.1-0.1l-0.2-0.2
	V52l0.1-0.2l0.7-0.2h0.1l0.2,0l0.3-0.2l0.4,0l0.1,0.1v0.2l0,0l0.2,0l0.2,0.1h0.1L44.2,51.6L44.2,51.6L44.2,51.6z"/>
<path id="AU-VIC" class="st0" d="M64.8,56l-0.2,0.1l-0.3,0h-0.9l-0.3,0h-0.3l-0.3,0L62,56.4l-0.4,0.2l-0.4,0.3l-0.3,0.3l-0.3,0.3
	L60.2,58L60,58.1l-0.4,0l-0.4,0.1l-0.1,0H59l-0.1,0l-0.1,0.1l0.2,0.4l0.2-0.1l0-0.1l0.1,0l0,0.6l-0.1,0.1l-0.1,0l-0.1,0l0-0.1
	l-0.1-0.3l-0.2-0.2l-0.1-0.1l-0.1,0l0,0.1h-0.2l-0.1-0.3l0-0.1l-0.1-0.1l-0.2,0l-0.1,0.1h-0.1l-0.1,0l-0.3-0.3l0-0.2l0.2-0.1
	l0.1-0.1l-0.1-0.3l-0.1,0l-0.3,0l-0.1,0.2l-0.3,0.3l-0.2,0h-0.1l-0.2-0.3h0.2l0.2-0.1L57,57l-0.1-0.2l-0.2-0.3l-0.1,0l-0.2,0.1
	l-0.2,0.2l-0.3,0.2l-0.2,0l0,0V57l0.2,0l0.1,0l0.1-0.1l0.1,0l0,0.1l0,0.1l-0.1,0.1l0,0l-0.2,0l-0.3,0.1l-0.1,0l-0.5,0.4l-0.4,0.5
	l-0.2,0l-0.1,0l0,0.1l-0.2,0.2l-0.1,0L54,58.4l-0.1-0.1l-0.4-0.1l-0.1-0.1l-0.2-0.1l-0.1,0l-0.3-0.1l-0.5-0.4l-0.3-0.1l-0.2,0l0,0
	h-0.2l-0.2-0.1l-0.2-0.1l-0.2-0.1H51l-0.1,0l-0.1,0.1v0.1l0,0.1l-0.1,0l-0.2-0.1l-0.2-0.2L50,57l-0.2-0.1l-0.2-0.1l0,0v-8.9l0,0.1
	l0,0l0.1,0.1h0l0.3,0l0.3,0.1l0.2,0.1l0,0l0.1,0l0.1-0.1l0.2-0.1l0.3,0.1l0.3-0.1l0.2,0.1l0.1,0.1l0.2,0.4v0.3l0.2,0.1l0.1,0.2v0
	l0.1,0.1l0.2,0l0.1-0.1l0.1-0.2l0,0l0.1,0l0.1,0.1l0,0.1l0.2,0.1l0.3,0l0.4,0.2l0,0v0.1l0,0.2l0,0.3l0.1,0.2l0.1,0.1l0.1,0l0.1,0.1
	l0,0.1l0,0l0.1,0.1l0.1,0l0.1,0l0.3,0.2l0.3,0.2l0.1,0.2l0.2,0.2l0.1,0l0,0l0.1,0.2l0.4,0.4l0.2,0.1l0.1,0l0.3-0.1l0-0.2l0.1-0.2
	l0,0l0.2-0.1h0.2l0.1,0h0.2l0.2-0.1l0.1,0h0l0.1,0.1l0.2,0.2l0.1,0l0.5,0.1l0.4,0l0.2-0.1l0.1-0.1h0.1l0.2,0l0.2,0.1l0.4,0.1l0.2,0
	l0.3-0.1h0.2l0.2-0.2l0.2,0l0.2,0l0.2-0.1l0.3,0.1l0.2,0.1l0.1,0.7l0.1,0.1l0.2,0.3l0,0.2L62.2,54h0.2l3.1,1.6l0,0l-0.1,0.1l-0.2,0
	L65,56L64.8,56L64.8,56L64.8,56z M57.4,57.6l-0.1,0l0-0.1l0-0.1l0.3,0.1l0.1,0.1l0,0h-0.1L57.4,57.6L57.4,57.6L57.4,57.6z
	 M57.4,57.9L57.4,57.9l-0.2-0.1l-0.3,0v0l0.1-0.1l0.2,0l0,0L57.4,57.9L57.4,57.9L57.4,57.9z"/>
<path id="AU-QLD" class="st0" d="M65.6,25L65.6,25l0.1,0.1l-0.1-0.3l-0.1-0.2v-0.1l0.1-0.2l0.1-0.1l0.1,0l0.1,0l0.1,0.2l0.1,0.2
	l0.2,0.1l0.3,0.2l0.2,0.1l-0.1-0.2v-0.1l0.1-0.1l0.1,0l0.1,0.2l-0.1,0.1V25l0.2,0.3L67,26.1l0.1,0.2l0,0.3l0.1,0.2l0.1,0.1l0.1,0
	l0.1,0.1l0.1,0.1l0.1,0.2l0.1,0.1h0.1l0.1,0.1l0.2,0.2l0.1,0l0.1,0.1l0,0v0l0.1,0l0.1-0.1v-0.1l0.1,0l0.1,0l0.2,0.2l0.3,0.2l0.1,0.4
	l0.2,0.4l0.3,0.2l0.2,0.1l0.1,0.1l0.1,0.1l0,0.2l0.3,0.5l0.2,0.1h0.2l0.1,0.3l0,0.2l-0.1,0.1V31l0.1,0.1l0.1,0.1h0.1l0.1,0.2
	l0.2,0.1v0l-0.1,0.2L71,32.3l0,0.1l0,0.6l0.1,0.1l0,0.7l-0.1,0L71,34l0.1,0.3l0.2,0.2l0.1,0.2l0.1,0.4l0.2,0.2l0.1,0.1l0,0.3
	l0.1,0.2l0.1,0.1l0,0L71.7,36l-0.2,0.1l-0.2,0l-0.1,0.2l-0.3,0l-0.3,0l-0.3-0.1l-0.1-0.1H70l-0.1,0.1l0,0.1l-0.1,0l-0.3,0.1
	l-0.2,0.1l-0.2,0.1l0.2,0.4l-0.1,0.3l-0.3,0.2l-0.1,0l-0.1-0.1l-0.3,0.1l-0.2,0.3l-0.1,0.1L68,38l0,0l-0.1-0.2l0-0.3l-0.4-0.4
	L67,36.9l-0.3,0.1h-0.3l-0.1-0.1l-0.1-0.1h-0.1l-0.2,0l-0.2,0.1l-0.5,0l-0.2,0l0-0.1h-0.1l-0.2,0l-0.6,0.5l-0.2,0.3l-0.1,0.1H49.9
	h-0.2l0,0v-6h-5.3V13.8l0,0l0.3,0.3l0.2,0.1l0.3,0.1l0.3,0l0.1,0.1l0.3,0.1l0.3,0l0.2,0.3l0,0.2l0.1,0.2l0.1,0.1l0.1,0.1l0.2,0
	l0.2,0.1l0.1,0.1l0.3,0.1l0.1,0.1l0.2,0.1l0.1,0h0.2l0.5-0.1l0.2-0.1l0.2-0.1l0.2-0.2l0.1-0.1l0.1-0.2l0.1-0.4l0-0.3l0.4-0.6
	l0.2-0.4l0-0.3l0.2-0.5l0-0.3l0.1-0.7l0.3-0.7l0.1-0.2l-0.2-0.5L50.6,10l0-0.1l0.1-0.3V9.4l0-0.1L50.5,9V8.8l0.1-0.5l0.3-0.5l0-0.1
	l-0.1-0.1l-0.1-0.3V7.3l0,0l0.2-0.1L51,7l0.1-0.2l0.1,0l0.1,0.1v0.1l0.1,0.1V7.1l-0.1-0.3l-0.1-0.1l-0.2-0.3l0,0l0,0h-0.1l0,0.1
	l0.1,0.1l-0.1,0l-0.1,0v0l0.2-0.4l0.2-0.2l0-0.1l0.1-0.2l0.1-0.1l0.1,0l0,0.2l0.2,0v0l-0.1-0.1V5.4l0-0.2l0.3-0.8L51.7,4l0-0.3l0,0
	l0.1,0l0.3,0l0.1-0.1l0.1-0.2h0.1l0.2,0.1l-0.1,0.1l-0.1,0.1v0.2l0.1-0.1h0.1l0.2,0.2l0.1,0.2L53,4.5l0,0.2L53,5v0.2l0.2,0.2h0.1
	l0.1,0l0,0l0.1,0.1l-0.2,0.3l0,0.2v0.2l0.1,0h0.1l0.2,0.1l0,0.1v0.2l0.1,0.1h0.1L54,6.7l-0.1,0.2l0,0.2l0.1,0l0.2,0l0,0l0,0.4l0,0.4
	V8l0.1,0.1l0,0.1v0.2l-0.1,0.4l0.1,0.3l0.2,0.2l0,0.3l0.1,0.2l0.1,0.2l0.1,0.1l0.1,0.1H55l0.2-0.2l0.5-0.2l0.1-0.2l0.1,0L56,9.7
	l0,0.2l0.1,0.2l0.1,0.1l0.3,0.1h0.1l0.1,0.2l0.4,0.2l0.2,0.1V11l-0.1,0.2v0.1l0.1,0.1l0,0.1l-0.1,0.2l0.1,0.2l0.1,0.3v0.3l0.1,0.1
	l0.1,0.2l0,0.4l-0.1,0.1v0.2v0.1l0.1,0.1l0.6,0.8l0.1-0.1l0.2,0l0,0.1l-0.1,0.3v0.1l0.1,0.2l0.1,0.3l0.1,0.4l0,0.3l0,0.2l0,0.2v0.1
	l-0.2,0.4V17l0.4,0.5l0.2,0.1v0.2L59,18l0,0.2l0,0.1l0.1,0.1l0.2,0.1l0,0.1l0.2,0.1l0.2,0.1h0.2l0.2,0.2h0.1l0.2,0.1l0.1,0.1l0.2,0
	l0.3,0l0-0.1L61,19l0.1,0.1l0.2,0.3l0.1,0.4l0,0.1l0.1,0.1l0.1,0l0.1,0l0-0.1v-0.1h0.1l0,0.1l0,0.2l0.1,0.1l0.1,0h0.2l0.2,0l0.1,0.2
	l-0.1,0v0l0.1,0.1l0.1,0.1l0.1,0v-0.1l0,0l0-0.1l0.1,0l0.3,0.2l0.2,0l0.1,0.1l0.1,0.3l0.1,0l0,0.1l-0.1,0l-0.1-0.1l-0.1,0l-0.1,0
	l-0.1,0.2l0.1,0.3l0.2,0.2l0.1,0.1l0.2,0.1l0.2,0.2l0.1,0.1l0,0.1l0.1,0.2l0.1,0.1l0.1,0.2l0.1,0.2l0.1,0.1l0,0.4l0.2,0.6l0.1,0.3
	l0.1,0.2l0.1,0.1v0.2L65,25l0.1-0.1l0.1-0.1l0-0.1L65.6,25L65.6,25L65.6,25z M71,31.2L71,31.2l-0.2-0.1l-0.1-0.4l0.1-0.2l0.1-0.2
	v-0.2l0,0L71,30l0.2-0.1l0.1-0.2v-0.1v-0.1l-0.1-0.2l0,0l0.1-0.1l0.2-0.1v0.4l0.1,0.1l0.1,0.1l0,0.1l-0.4,1L71,31L71,31.2L71,31.2
	L71,31.2L71,31.2z M46.4,14.2l0-0.1l0-0.2l0.1-0.1l0.2-0.1l0.3,0l0.1-0.1l0.3,0.1v0.1l-0.1,0l-0.1,0l-0.1-0.1L47,13.8l0,0.1L46.9,14
	l-0.2,0.1L46.4,14.2L46.4,14.2L46.4,14.2z M67.8,27.4L67.8,27.4l-0.2-0.2L67.5,27l-0.1-0.1l0-0.1l0.1,0l0.2,0.2l0,0.1l0.1,0.2l0,0.1
	L67.8,27.4L67.8,27.4L67.8,27.4L67.8,27.4z M59,17.4l-0.1,0l0-0.2l-0.1-0.1l-0.1,0l0-0.1l0.1,0L59,17l0.2,0.2L59,17.4L59,17.4
	L59,17.4L59,17.4z M71.6,35.1L71.6,35.1l0-0.2l0.1-0.4l0.1,0l0.1,0l-0.1,0.4L71.6,35.1L71.6,35.1L71.6,35.1z M71.7,34.3L71.5,34
	v-0.3l0.2-0.1l0,0L71.6,34L71.7,34.3C71.7,34.3,71.7,34.3,71.7,34.3z M51.8,3.3l-0.1-0.1V3.1l0.1-0.1h0.1l0.1,0.1v0.1L51.8,3.3
	L51.8,3.3L51.8,3.3L51.8,3.3z M51.9,2.4l-0.1,0l0-0.1l0.1-0.1l0.1,0l0.1,0l0,0.1L51.9,2.4z M46.9,14.9l0-0.1l0.2-0.2l0.1,0.1l0,0.1
	L46.9,14.9L46.9,14.9L46.9,14.9z"/>
<path id="AU-TAS" class="st0" d="M60.1,69.7L60,69.8l0-0.1l-0.2,0l-0.2-0.1l-0.2,0l-0.4,0l0,0l0-0.1h0l-0.2,0.1l-0.1,0l-0.2-0.3
	l0.1-0.1l0.2,0l0.1,0.1l0.1,0V69l-0.1-0.1L58.7,69L58.3,69l0,0L58,68.6l-0.2-0.4l0,0h-0.1L57.6,68l-0.1-0.1l-0.1-0.4l-0.1-0.1
	l-0.1,0l-0.1-0.7v-0.1l0,0l0,0.1l0.3,0.2l0.1,0.4l0.2-0.4l-0.1-0.1h-0.1l-0.3-0.3l0-0.1V66l0-0.1l-0.1-0.2l-0.2-0.2l-0.2-0.3
	L56.2,64l0-0.1l0-0.2l0-0.1l0-0.2l0.1-0.1v-0.3l0.1-0.1l0.4,0l0.2,0.2l0.3,0l0.1,0.1l0.4,0.1l0.6,0.3l0.6,0.3l0.4,0l0.2,0l0.2,0.1
	v-0.1l0.1-0.2l0.1,0l0.1,0l0,0.2l0.1,0h0.2l0-0.1l-0.1,0l0,0v-0.1l0.1-0.1l0.3-0.1l0.2,0.1l0.4-0.1l0.1,0.1l0.1-0.1l0.2-0.3l0,0
	l0.1,0l0,0.1l0.2,0.1h0.1l0.1-0.1l0.1-0.1l0-0.1l0,0h0.1l0.1,0.1l0.2,0.2l0.1,0.1l0.1,0.2l-0.1,0.4V64l0.1,0.1v0.2l-0.1,0.3v0.2
	l0.1,0.2l-0.1,0.5l0.1,0.5l0.1,0.2v0.3l-0.1,0.1l-0.1-0.1v-0.1l0-0.1l0-0.2l-0.1-0.3l-0.1-0.1l-0.2,0.4l-0.1,1L62,67.2l0,0.1l0,0.2
	l-0.1,0.1l-0.1,0.2l0,0h0.1l0-0.1l0,0l0.1,0.1l0,0.1v0.2l-0.1,0l0,0.2l0.1,0.2l0,0.1h0l-0.1-0.1l-0.1,0.1l-0.1,0.1l-0.2-0.2
	l-0.1-0.2l0-0.1l0.1-0.2l0.1,0l0,0v0.1l0,0.1l0.1,0.1h0.2l0.1-0.1l-0.1-0.2l-0.4-0.2h-0.1l-0.1,0.1l0,0.2l0.1,0.1l0,0.1l-0.2,0.1
	l0-0.1l0,0l0-0.2l-0.2-0.1l0.1,0.1l0,0.2l-0.1,0.1l0,0.2l0,0.2l0,0.2l-0.1,0h-0.1l-0.1-0.1l-0.1-0.2l0-0.2h0l0,0.1v0.2l0.2,0.2
	l-0.1,0.2l-0.1,0.1l-0.1,0.3L60.1,69.7L60.1,69.7L60.1,69.7z M62.3,61.8l-0.2-0.1l0-0.2v0l-0.2-0.4l-0.2-0.2l0.2-0.3l0.2-0.1
	l0.3,0.5l0.1,0l0.1,0v0.1l0.1,0.5v0.1l-0.1,0L62.3,61.8L62.3,61.8L62.3,61.8z M54.8,61.5L54.8,61.5l-0.1-0.2l0,0v-0.2L54.7,61v-0.1
	l0-0.4l0.1-0.1l0-0.1l0-0.1l0.1,0l0.2,0.1l0.1,0.1l0,0.4l0,0.2l0,0.1l0,0.1L54.8,61.5L54.8,61.5z M62.7,62.3v-0.1l0,0l-0.4,0
	L62,62.2v-0.1l0.1-0.1h0.1l0.1,0l0.2-0.1l0.2,0.3v0l-0.1,0L62.7,62.3L62.7,62.3z M60.8,69.5l-0.1-0.1l-0.1,0l-0.1-0.2l0.3-0.4
	l0.1,0.3L60.8,69.5C60.8,69.4,60.8,69.5,60.8,69.5z M60.9,68.9l-0.1-0.3l0.1-0.2l0.1,0.1l0.1,0.3v0L60.9,68.9L60.9,68.9z M62.1,67.6
	v-0.3l0.1-0.1h0.1l0.1,0.2v0h-0.1L62.1,67.6L62.1,67.6z M56.5,62.9L56.5,62.9l0-0.1l0.1-0.1l0.2,0.2L56.5,62.9z"/>
</svg>
