<?xml version="1.0" encoding="utf-8"?>
<!-- Generator: Adobe Illustrator 27.6.1, SVG Export Plug-In . SVG Version: 6.00 Build 0)  -->
<svg version="1.1" id="Layer_1" xmlns="http://www.w3.org/2000/svg" xmlns:xlink="http://www.w3.org/1999/xlink" x="0px" y="0px"
	 viewBox="0 0 72 72" style="enable-background:new 0 0 72 72;" xml:space="preserve">
<style type="text/css">
	.st0{fill:#1A305B;}
</style>
<polygon class="st0" points="52.5,16 52.5,16.5 51.7,16.7 51.6,17.9 52.6,17.9 53.9,17.7 54.5,17 53.8,16.7 53.4,16.2 52.9,15.3 
	52.6,14 51.5,14.2 51.2,14.7 51.2,15.2 51.7,15.6 "/>
<polygon class="st0" points="51.5,16.5 51.6,15.7 51,15.5 50.1,15.7 49.4,16.7 49.4,17.4 50.2,17.4 "/>
<path class="st0" d="M33.3,19.5L33.1,20h-1v0.5h0.2c0,0,0,0.1,0,0.2l0.6,0l0.4-0.2l0.1-0.5l0.5,0l0.2-0.4l-0.4-0.1L33.3,19.5
	L33.3,19.5z"/>
<polygon class="st0" points="30.8,20.4 30.8,20.9 31.5,20.8 31.5,20.3 31.1,20 "/>
<path class="st0" d="M72,35.6c0-1-0.1-2.1-0.2-3.1c-0.3-3.4-1.2-6.7-2.4-9.8c-0.1-0.2-0.2-0.5-0.3-0.7c-1.6-3.9-3.9-7.4-6.8-10.4
	c-0.2-0.2-0.4-0.4-0.6-0.6c-0.5-0.6-1.1-1.1-1.6-1.6C53.8,3.6,45.3,0,36,0S18,3.6,11.6,9.5c-1.5,1.4-2.9,2.9-4.1,4.5
	C2.8,20.1,0,27.7,0,36c0,19.8,16.1,36,36,36c14,0,26.1-8,32.1-19.7c1.3-2.5,2.3-5.2,2.9-7.9c0.2-0.7,0.3-1.4,0.4-2.1
	c0.4-2,0.6-4.2,0.6-6.3C72,35.9,72,35.7,72,35.6z M65.2,21.2l0.2-0.2c0.3,0.5,0.5,1.1,0.8,1.6h-0.3l-0.6,0.1V21.2L65.2,21.2z M60,15
	v-1.6c0.6,0.6,1.1,1.2,1.6,1.9l-0.7,1l-2.3,0l-0.1-0.5L60,15L60,15z M16.6,11L16.6,11l0.7-0.1l0.1-0.2h1.2v0.5l-0.3,0.4h-1.6
	L16.6,11L16.6,11L16.6,11z M17.7,12.6c0,0,0.7-0.1,0.8-0.1s0,0.7,0,0.7l-1.6,0.1l-0.3-0.4L17.7,12.6L17.7,12.6z M67.5,26.9h-2.6
	l-1.6-1.2l-1.7,0.2v1H61l-0.6-0.4l-2.9-0.7v-1.9l-3.7,0.3l-1.2,0.6h-1.5l-0.7-0.1l-1.8,1v1.9L45,30.2l0.3,1.1h0.7l-0.2,1.1l-0.5,0.2
	l0,2.8l3.2,3.6h1.4l0.1-0.2h2.5l0.7-0.7h1.4l0.8,0.8l2.1,0.2l-0.3,2.8l2.3,4.1l-1.2,2.3l0.1,1.1l1,1v2.6l1.3,1.7v2.2h1.1
	C55.5,64.3,46.3,69.1,36,69.1c-18.2,0-33-14.8-33-33c0-4.6,0.9-9,2.6-12.9v-1l1.2-1.4c0.4-0.8,0.8-1.5,1.3-2.3L8.1,19l-1.4,1.7
	c-0.4,0.8-0.8,1.6-1.2,2.5V25L7,25.6v2.6l1.3,2.2l1.1,0.2l0.1-0.8l-1.3-2L8,26h0.7L9,28l1.8,2.7l-0.5,0.9l1.2,1.8l2.9,0.7v-0.5
	l1.1,0.2l-0.1,0.8l0.9,0.2l1.4,0.4l2,2.2l2.5,0.2l0.2,2.1l-1.7,1.2l-0.1,1.8l-0.2,1.1l2.5,3.1l0.2,1.1c0,0,0.9,0.2,1,0.2
	s2,1.5,2,1.5v5.7l0.7,0.2l-0.5,2.6l1.1,1.5l-0.2,2.6l1.5,2.7l2,1.7l2,0L33,66l-1.5-1.2l0.1-0.6l0.3-0.7l0-0.8l-1,0l-0.5-0.6l0.8-0.8
	l0.1-0.6l-0.9-0.3l0-0.5l1.3-0.2l2-0.9l0.7-1.2l2.1-2.6L36,52.8l0.6-1.1l1.9,0.1l1.3-1l0.4-4l1.4-1.8l0.2-1.2l-1.3-0.4l-0.8-1.4
	l-2.9,0l-2.3-0.9l-0.1-1.7l-0.8-1.3l-2.1,0l-1.2-1.9l-1.1-0.5l0,0.6l-2,0.1l-0.7-1l-2-0.4l-1.7,1.9l-2.6-0.5l-0.2-3l-1.9-0.3
	l0.8-1.5l-0.2-0.8l-2.5,1.7l-1.6-0.2L14,31.1l0.4-1.3l0.9-1.6l2-1h3.9l0,1.2l1.4,0.6l-0.1-2l1-1l2-1.3l0.1-0.9l2-2.1l2.2-1.2
	l-0.2-0.2l1.5-1.4l0.5,0.1l0.2,0.3l0.6-0.6l0.1-0.1l-0.6-0.1l-0.6-0.2v-0.6l0.3-0.3h0.7l0.3,0.1l0.3,0.6l0.3,0v0l0.1,0l1-0.2
	l0.1-0.5l0.6,0.1v0.5l-0.5,0.4l0,0l0.1,0.6l1.8,0.6c0,0,0,0,0,0l0.4,0l0-0.8l-1.5-0.7l-0.1-0.4l1.2-0.4l0-1.1l-1.3-0.8l-0.1-1.9
	l-1.7,0.9H33l0.2-1.5l-2.4-0.6l-1,0.7v2.2l-1.8,0.6l-0.7,1.5l-0.8,0.1v-1.9L25,15.4l-0.8-0.5l-0.3-1.2l3-1.7l1.4-0.4l0.1,1l0.8,0
	l0.1-0.5l0.8-0.1v-0.2l-0.4-0.1L29.7,11l1-0.1l0.6-0.6l0-0.1l0,0l0.2-0.2l2.2-0.3l1,0.8l-2.5,1.3l3.2,0.8l0.4-1.1h1.4l0.5-0.9
	l-1-0.2V9.2l-3.1-1.4l-2.1,0.2l-1.2,0.6l0.1,1.5L29,10.1l-0.2-0.9l1.2-1.1L27.9,8l-0.6,0.2L27,8.9l0.8,0.1l-0.2,0.8L26.2,10L26,10.5
	l-2,0.1c0,0-0.1-1.1-0.1-1.1s1.6,0,1.6,0l1.2-1.2L26,7.9l-0.9,0.9l-1.5-0.1l-0.9-1.2h-1.9l-2,1.5h1.8l0.2,0.5l-0.5,0.4l2,0.1
	l0.3,0.7l-2.2-0.1L20.4,10L19,9.7l-0.7-0.4h-1.7C22,5.3,28.7,3,36,3c8.3,0,16,3.1,21.8,8.2l-0.4,0.7l-1.5,0.6l-0.6,0.7l0.2,0.8
	l0.8,0.1l0.5,1.2l1.4-0.6l0.2,1.6h-0.4l-1.1-0.2l-1.2,0.2l-1.2,1.7l-1.7,0.3l-0.2,1.5L53,20L52.8,21l-1.7-0.3L49.6,21l-0.3,0.9
	l0.3,1.8l0.9,0.4h1.5l1-0.1l0.3-0.8l1.6-2.1l1.1,0.2l1-1l0.2,0.7l2.6,1.7l-0.3,0.4l-1.2-0.1l0.5,0.6l0.7,0.2l0.8-0.4l0-1l0.4-0.2
	l-0.3-0.3l-1.7-1l-0.5-1.3h1.4l0.5,0.5l1.2,1.1l0,1.3l1.3,1.4l0.5-1.9l0.9-0.5l0.2,1.5l0.9,1l1.7,0c0.3,0.9,0.6,1.7,0.9,2.6
	L67.5,26.9L67.5,26.9z M19.6,16.4l0.9-0.4l0.8,0.2l-0.3,1l-0.8,0.3L19.6,16.4L19.6,16.4z M24.2,18.8v0.7h-2l-0.7-0.2l0.2-0.5l1-0.4
	h1.3v0.4C23.9,18.8,24.2,18.8,24.2,18.8z M25.1,19.8v0.7l-0.5,0.3L24,20.9v-1.1H25.1z M24.6,19.5v-0.8l0.7,0.6L24.6,19.5z
	 M24.9,21.1v0.6l-0.5,0.5h-1l0.2-0.7l0.5,0l0.1-0.2L24.9,21.1L24.9,21.1z M22.3,19.8h1.1l-1.4,2l-0.6-0.3l0.1-0.8L22.3,19.8
	L22.3,19.8z M26.7,20.9v0.6h-1l-0.3-0.4v-0.6h0.1L26.7,20.9L26.7,20.9z M25.8,20l0.3-0.3l0.5,0.3l-0.4,0.3L25.8,20z M68.1,28.5
	l0.1-0.1c0,0.2,0.1,0.4,0.1,0.6C68.3,29,68,28.5,68.1,28.5z"/>
<path class="st0" d="M5.6,22v1c0.4-0.8,0.8-1.7,1.2-2.5L5.6,22L5.6,22z"/>
</svg>
