<?xml version="1.0" encoding="UTF-8"?><svg id="Layer_1" xmlns="http://www.w3.org/2000/svg" viewBox="0 0 72 72"><path id="AU-NT" d="m31.81,6.69v-.06l.1-.13-.24-.16.06-.13.07-.03h.25s.02-.05.02-.05l-.02-.15-.05-.1.05-.07h.16s.18.12.18.12h.23s.16.13.16.13h.1s.78-.04.78-.04l.23.07.29-.2h.24s.1.19.1.19l-.06.13.1-.1v-.04s-.02-.21-.02-.21l.03-.06.24-.08.19.07h.12s-.07-.02-.07-.02l-.13-.09-.02-.08v-.52s.11-.16.11-.16l-.27-.2-.09-.13-.07-.05-.13-.02-.25.04-.22.12h-.03s-.17-.17-.17-.17l-.03-.12-.19-.1h-.17s-.01,0-.01,0l.19-.23.2-.09.19.18.13.32h.07s.05-.09.05-.09l-.08-.24-.08-.15h.06s.17.04.17.04l.11-.06.29.24.02.08.28.36.1.02.08-.06.18-.27h.08s.14.15.14.15l.27.48.07.05.12.04.1-.07h.09l.09.13.25.11h.12s.09-.02.09-.02l.17-.09.07-.09.19.03.02.06-.12.07-.03.04v.04s.06.05.06.05l.13.05.1-.05.05-.07h.04s.24.18.24.18l-.02.03.02.14.03.03.29-.04.09.04h.17s.15,0,.15,0l.13-.1h.17s.18.23.18.23l.22.12.15.13.19.02.07.03v-.03s.06-.19.06-.19l.11-.11.09-.04.1.05.26-.03.14-.11-.04-.02-.1.06-.02-.04.04-.14.16-.04h.12s.22-.18.22-.18v-.13s.06,0,.06,0l.06.07-.05.09-.3.26.07.09-.2.21v.06s.03.08.03.08l.08.08.09-.04.03-.07.14-.12.25-.07-.15.19.06.09.13-.06.03.05-.14.21.05.12.05.05.07-.05h.13s.02.03.02.03h.12s.09-.08.09-.08l.12-.31-.05-.06-.17.02-.11-.05v-.04s.18-.18.18-.18l.3-.2.2-.04-.04.14.11.31.13.18h.08s.07-.05.07-.05v-.04s-.12-.04-.12-.04v-.03s.15-.04.15-.04l.18.09.18.24-.31.22-.1.12-.18.29-.04.22-.22-.08-.02.12.11.2v.17s-.03.17-.03.17l-.12.19-.02-.06-.14.05v-.32s-.02-.03-.02-.03h-.06s-.07.2-.07.2l-.15.13h-.07s-.02-.07-.02-.07l-.09-.03-.18.07-.12.1-.06.11v.05s.08.06.08.06l-.05.11-.08.07-.03.2.08.23.07.04.1-.02.08-.09v.14s-.07.19-.07.19l-.11.17-.05.33-.05.09-.21.14-.23.3-.14.25v.13s-.22.15-.22.15h-.07s.11.31.11.31l.07.11.12.1.23.08.32.21.16.15.47.25.05.04.04.22.1.11.44.21.18.15.16.18.47.02.19.1.41.29.21.09h.1s.18.06.18.06l.16.08.22.34.25.21h0v17.85h-11.97s-2.36,0-2.36,0h-1.58s0-16.54,0-16.54h0v-3.42h0v-.96h0l.16.05.17.15-.02.33.03.04.12-.14-.07-.44.02-.04.18.05.23.12.36.41v.09s.11-.04.11-.04l-.12-.16-.07-.14-.02-.14.04-.08.02-.12.27.05.11-.04.14-.14-.32.1-.16-.1-.13-.17-.03-.08.07-.03h.14s.12-.1.12-.1v-.04s-.19.07-.19.07l-.21-.04-.15-.09-.17-.16.02-.14.11-.2.11-.14.43-.27.1-.45v-.08s.07-.33.07-.33l.13-.13.02.11.06.04.17-.03.22-.15.18-.19-.02-.07-.11-.15-.06-.05h-.06s-.01-.05-.01-.05l.02-.32.03-.08.07-.03.02.05.05.02h.07s.11-.1.11-.1l.05-.1-.02-.24.02-.06.27-.12.16.19h.16s-.15-.06-.15-.06l-.05-.19.05-.12v-.14s-.04-.04-.04-.04l.09-.04.25.08s.22.38.22.38Zm.11-1.26l-.17-.14-.32-.13-.33-.26-.13-.35-.09-.35v-.13s.05-.03.05-.03l.25.22.07.12.23.07.25-.06.1-.09.19.08.21-.16h.05s.04.12.04.12l.09.13v-.05s-.05-.15-.05-.15l.02-.09.12-.09.26.1.2.26v.14s-.44.47-.44.47h-.06s-.22.15-.22.15l-.3.22h0Zm10.52,4.04l.03-.05h.08s-.05.22-.05.22l-.09.04-.24-.07-.21.03-.45-.11.06-.31v-.13s.03-.15.03-.15l.05-.09.24-.05.06-.04-.05-.11.15-.12h.08s-.01.09-.01.09l-.07.05.07.19.17.03.06-.06-.02-.06.03-.04.06-.02.05.04v.07s-.16.18-.16.18l-.09.06-.11.24v.17s.05.04.05.04l.24.04.07-.06h0Zm-11.35-4.22l-.29-.11-.41.1-.1-.02-.03-.04v-.05s.08-.18.08-.18l.08.05h.07s.07-.06.07-.06v-.25s-.03-.08-.03-.08l.14-.25.16-.03.26.65.13.03.13.12-.04.09-.22.03h0Zm10.63-.69v-.08s.25-.35.25-.35l.15-.31.08-.04-.09.33-.29.4-.04.04s-.06,0-.06,0Zm-6.91-.2l-.05-.06-.06-.17-.05-.3.14-.05.08.28v.18s-.05.12-.05.12h0Zm7.88,8.11l-.1-.07-.11-.16.03-.09.1-.1.08.1.07.22-.05.12h-.02Zm-1.51-3.58v-.07s-.05-.1-.05-.1l-.05.03.03.09h-.07l-.03-.03.02-.15.15-.12h.07s.08.12.08.12l-.02.12-.06.09-.07.03Zm-.03-3.91v-.08l.16-.13h.13s.23-.19.23-.19l-.02.09-.18.14s-.34.18-.34.18Zm.6,7.15l-.05-.02.04-.15.1-.07.05.02-.03.2s-.11.02-.11.02Z" style="fill:#105c90;"/><path id="AU-WA" d="m2.36,31.65l.03-.06v-.24s-.39-.42-.39-.42l-.21-.39-.19-.49-.19-.11-.16-.45v-.09s0-.18,0-.18l-.11-.18-.22-.26-.06-.19v-.38s.06-.19.06-.19l.04-.24.15-.49.12-.24.25-.2.04-.16.02-.22-.04-.25.1-.31-.02-.19-.1-.27-.14-.21-.03-.15.25-.51.24-.68.17-.25.1-.06.13-.02.02.05-.09.17-.09.5.11.24-.06.35.08.08.39-.16.05-.2.11-.28.29-.51.05-.16.52-.29h.19s.34-.18.34-.18l.36-.14.3-.35.11-.08.22-.1.21-.32.42-.19.05-.12.11-.06h.11s.29-.12.29-.12l.23-.14.18-.15.14.03.08.08.08.02.34-.18.17.06.06.07.12.06.13.02h.11s.49-.1.49-.1l.29-.13.39-.37.19-.12.02.05h.07s.55-.09.55-.09h.2s.25-.07.25-.07l.26-.32.05-.14.18-.14.19-.02.43.11.26.1.36-.19.8-.12.17-.06.96-.4.26-.14.44-.37.37-.51.27-.58.24-.33-.02-.15.06-.14.04-.04.12.03.09-.05.13-.1.09-.14.11-.05.37-.29.05-.13v-.1s-.06-.05-.06-.05l-.14-.04-.08-.12-.02-.35-.1-.27v-.36s.06-.22.06-.22l.14-.25.22-.21.12-.08h.22s-.09-.2-.09-.2l.07-.1.05-.02.04.04h.04l.2-.07.02-.05-.05-.07.04-.18.05-.06.09-.02.09-.1v-.1s.05-.06.05-.06l.13-.05.12.12-.04.05h-.09s-.06.19-.06.19l.11.15.14.08.04.14.34.63.43.7.04.15.03-.16-.06-.12v-.14s.1-.3.1-.3l-.08-.24.03-.14h.11s.22.27.22.27l.13.12.06.03.04-.02-.07-.03-.08-.1-.06-.25.17-.19-.06-.03-.14.04-.03-.02-.09-.18-.19-.21v-.2s-.19,0-.19,0l-.14-.12h.12s.26.05.26.05l.12-.18v-.09s0-.07,0-.07l-.2-.04-.06-.06v-.16s.02-.05.02-.05l.28-.06.14.11-.04.09-.09.02.19.2.09.02v-.07s.13-.17.13-.17l.22.03.09.04.05.03.06.15.05.03h.18s.09-.09.09-.09l.16.08.18.02.27-.04.19.08.1-.04h-.14s-.21-.11-.21-.11l-.14-.03h-.09s-.14.04-.14.04h-.11l-.03-.03-.04-.2.1-.22.07-.02.08.13.13-.09v-.17s.04-.19.04-.19l.2-.2-.1-.04-.1.03-.14.24h-.08s-.15-.13-.15-.13l-.05-.36.15-.35.06-.02.16.09.13-.07.03-.05-.02-.35.07-.02.37.19.14.14.33.16-.19-.16v-.04s.07-.15.07-.15l-.04-.04h-.15s-.18.06-.18.06l-.02-.1.07-.09.07-.03.05.03.07-.12h-.06s-.23.14-.23.14h-.05s-.05-.14-.05-.14l.06-.07.08-.04.1.03h.04s.09-.08.09-.08l-.03-.06.11-.07.12.28.03.02.02-.08-.02-.16.21.12v.07s.07.03.07.03h.16s.04-.04.04-.04l-.03-.03h-.05s-.05-.04-.05-.04l.05-.05-.19-.14-.17-.09.06-.07.05-.02-.19-.28.19-.27.16-.14.09.04h.36s.02-.21.02-.21l-.03-.21.02-.12.05-.03.2.09-.15.65.03-.03.11-.38.21.11-.03.2.03.06.1.07.16-.17.08-.06.05-.31.14-.28v-.11s-.11-.3-.11-.3l-.11-.07.09-.02.14.02.12.06v.14s-.11.04-.11.04l.06.2.07.02.09.1.05-.07-.03-.1.07-.16.17-.14.13-.02-.08.2.2.26.06.02.18-.19.15-.28-.08-.32.2-.08.17-.04.11.09.1.13-.03.07.13.15.04-.07v-.06s.16,0,.16,0l.32.1.17.24.24.16.53.74.08-.04.3.26.03.18-.08.12-.13.42.02.19v.35s-.1.19-.1.19l.08-.05.05-.07.06-.4.09.04.13.13.05.17v-.18s-.11-.21-.11-.21l-.06-.23.2-.28h.04s.05.24.05.24h.17s.02-.08.02-.08l-.07-.13-.06-.24.26-.07.82.21h0v.96h0v3.42h0v16.55h0l-.02,11.44h0l-.37.16-.42.25-.66.3-.3.12-.49.09-.71.28-.37.07-.77.04-.51-.05-.39-.11-.2.1-.17-.04-.29.16-.51.42-.13.06-.25.05-.54.3-.21.18-.23.14-.61.1-.21.08-.16.13-.15.19-.18.53-.08.35-.17.12-.16.17-.06.12v.06s-.08.09-.08.09l-.27.18-.3-.02-.05.02-.11.14-.08.06-.12.04-.12-.28-.15-.06-.31.1-.2-.03h-.24s-.03.04-.03.04l-.25.03-.14-.03-.1.04-.06.07-.02.11-.23.02-.07-.02.04-.08-.05-.18-.1-.13h-.04s-.14.01-.14.01l-.1.09-.14.04-.46-.16h-.11s-.22-.01-.22-.01l-.5.09h-.33l-.13.07-.44.06-.22.12-.29-.07-.44-.02-.34.1-.13.14-.22.12-.09.11-.15.26-.02.13-.25.25-.21.12-.23-.08-.3-.03-.3.21-.04.05.06.07-.06.07-.14.09-.29.09-.1.11-.05.14-.19.14-.35.19-.43.08v.04s.04.05.04.05l.24.05-.11.06-.13-.02-.13-.1-.1-.04h-.11s-.06.05-.06.05l-.04.15-.14-.11-.36-.15h-.68s-.09.08-.09.08h-.04s-.26-.08-.26-.08l-.22.03-.25-.07-.43-.29-.43-.1-.11-.25-.18-.2-.29-.3-.27-.18-.32-.17h-.13s-.13.02-.13.02l-.08.11-.2-.21v-.18s-.09-.66-.09-.66v-.37s.07-.36.07-.36l.07.02.11.16.21.09h.17s.14-.07.14-.07l.06-.03.5-.72-.08-.59-.13-.65.04-.14.14-.17v.07s-.11.11-.11.11v.08s.07.2.07.2l.05.07.03-.02v-.11s.08-.3.08-.3l-.05-.52.04-.27-.03-.2v-.42s-.06-.37-.06-.37l-.04-.12-.43-.79-.12-.36-.1-.24-.25-.44-.21-.55v-.06s-.04-.41-.04-.41l-.12-.4-.04-.03v-.79s.07-.37.07-.37l-.09-.31-.05-.07-.03-.19-.09-.22-.38-.45-.05-.15v-.33s-.16-.29-.16-.29l-.35-.52-.13-.08-.14-.2-.11-.48.02-.15.06-.14-.03-.21-.09-.3-.24-.5-.24-.46-.38-.55-.54-.57-.1-.31.08-.16v-.18s0-.05,0-.05l.03-.02.03.38.05.11.06-.31.26.32.04.11.02.33.04.12.13.17h.06s0-.04,0-.04l.11-.08.07.02.13-.19v-.34s-.12-.17-.12-.17l-.24-.16-.18-.19-.1-.42-.18-.29.03-.16.11-.17.05.04.16.3.19.16.07.18-.04.23-.05.05v.17s.06.15.06.15h.09s.06-.06.06-.06l.14-.27.09.46.05.13.2.26.22-.17.05-.16-.05-.08-.03-.14.06-.38.06.03h0Zm-1.83.28l-.05-.04-.26-.4-.13-.27-.08-.31v-.17s.08-.1.08-.1l.09.02-.04.09v.05s.22.6.22.6l.18.33.04.13-.04.07ZM20.54,11.77v-.05s-.11-.09-.11-.09v-.08s.06-.07.06-.07l.12-.05.15.26s-.22.08-.22.08ZM4.35,21.84l-.06-.05-.04.04h-.01s0-.11,0-.11l.18-.24.06-.04h.02s.02.14.02.14v.06s-.11.16-.11.16c0,0-.06.05-.06.05Zm17.28-11.51l-.09-.05v-.14s.05-.1.05-.1l.08-.09.08.09-.04.2-.06.03s-.02.06-.02.06Z" style="fill:#105c90;"/><path id="AU-ACT" d="m63.9,52.05l-.21-.1-.23-.35-.05-.13v-.3s.09-.42.09-.42l.46-.34.21.12.09.11.16.06.11.07-.08.07-.16-.02-.13.06-.08.12-.1.41.04.45v.06s-.11.14-.11.14Z" style="fill:#105c90;"/><path id="AU-NSW" d="m65.56,55.55l-3.14-1.58h-.16s.14-.26.14-.26l.02-.16-.16-.33-.11-.14-.09-.72-.19-.12-.3-.13-.15.06-.25-.05-.16.03-.16.21h-.16s-.3.12-.3.12l-.24-.02-.39-.12-.16-.12-.18-.03h-.11s-.06.08-.06.08l-.19.08-.37-.03-.51-.1-.12-.05-.21-.2-.13-.1h-.04s-.13.02-.13.02l-.15.08h-.15s-.06-.06-.06-.06h-.22l-.22.06-.03.04-.06.22.03.22-.31.09-.07-.02-.22-.13-.37-.43-.09-.21-.04-.04-.1-.03-.18-.16-.14-.19-.3-.16-.27-.21-.13-.05-.07.02-.11-.08-.03-.05.04-.12-.07-.11-.14-.04-.13-.08-.08-.18-.05-.27.04-.21v-.14s-.02-.03-.02-.03l-.38-.21-.26-.02-.21-.08-.02-.06-.11-.07-.1.03-.03.04-.06.25-.08.1-.15-.03-.06-.07v-.04s-.09-.25-.09-.25l-.15-.14v-.31s-.25-.41-.25-.41l-.14-.1-.2-.09-.28.06-.26-.07-.16.06-.1.14-.09.05-.03-.04-.2-.12-.29-.14-.3-.02h-.05s-.08-.1-.08-.1h0v-10.38h.22s3.55,0,3.55,0h10.3l.14-.07.21-.26.57-.48.2-.05h.05s.03.07.03.07l.15.05.54-.05.25-.1.24-.03h.05s.14.15.14.15l.12.08h.29s.27-.05.27-.05l.45.2.45.39.02.31.07.16.04.02.09-.02.08-.09.16-.33.3-.14.07.13.11.05.34-.16.06-.33-.16-.36.17-.14.2-.1.35-.12.07-.05.04-.09.1-.08h.08s.12.13.12.13l.29.06.33-.03.29.02.14-.18.24-.04.19-.07.13-.11h0l.13.12.02.13-.06.43.03.23.08.11-.03.4-.28.36-.2.57.05.14-.2,1.12-.09.33-.33.93-.02.55.03.1h.06s.03.13.03.13l-.18.61-.03.24-.19.61-.16.32-.36.45-.08.21.05.28-.02.29-.31.26-.13.15-.27.17v.09s.03.09.03.09l-.34.12-.25.13-.25.38-.17.42-.04.03h-.09s-.08.07-.08.07l-.02.1.07.07-.06.23-.2.27-.08.57-.04.15-.06.05h-.1s-.14.04-.14.04l.1.03.07.07-.14.23-.16.12-.16.23-.17.48.07.09-.09.4-.11.07-.04.12.06.18.12.13-.03.14-.05.04-.06-.06.02-.04-.02-.1h-.05s-.11.07-.11.07v.07s.03.11.03.11l-.1.11-.19.1-.1.18v.09s-.14.38-.14.38l-.09.14-.34.75-.04.37v.47s-.11.13-.11.13l-.09.52-.1.37-.11.28v.32s.18.2.18.2l.02.15v.07s-.05-.02-.05-.02l-.07.06v.26s.06.25.06.25h0Zm-1.55-3.64v-.07s-.03-.45-.03-.45l.1-.4.08-.12.13-.06.16.02.08-.07-.11-.07-.16-.06-.09-.11-.21-.12-.46.34-.08.42v.3s.04.13.04.13l.24.35.04.04.18.06.08-.13h0Z" style="fill:#105c90;"/><path id="AU-SA" d="m41.38,48.35l-.18.28-.14.06-.15.26-.18.11-.11.22-.13.38.04.02h.08s.24-.18.24-.18l.02.11-.03.42-.08.04-.05-.09-.15-.16-.11-.07-.11.02-.08.18h-.06s-.07-.13-.07-.13l-.23-.3-.26-.27-.14-.11-.06-.02-.18.06.07-.19.1-.14v.13s.24.25.24.25l.09.06.18-.06-.18-.07-.02-.07v-.06s.02-.07.02-.07l-.08-.44-.14-.36-.02-.24-.12-.18-.28-.32-.34-.28.05-.2-.02-.15-.09-.25-.18-.37-.2-.08-.33.05-.14.08-.11-.12v-.05s-.13-.35-.13-.35l-.22-.49h.14s.07.07.07.07l.02.11.12-.16.04-.11-.04-.19-.13-.18-.11-.1h-.05s-.28.08-.28.08l-.11.11h-.07s0-.18,0-.18l.05-.12.09.04.03-.05-.22-.31-.18-.1-.11-.1.02-.08-.12-.04-.04.04-.03.11-.14.09-.56-.04h-.05s-.12-.15-.12-.15l-.16-.06-.25-.24-.08-.05-.36-.04-.17.03-.13.12-.15.05h-.11s-.12-.02-.12-.02l-.3-.3-.46-.33-.72-.37-.38-.14h-.06s-.18.15-.18.15l-.3.12h-.09s-.94-.06-.94-.06h-.2s-.38.04-.38.04l-.17.04-1.07.09-.41.07h0v-11.43h1.59s2.36,0,2.36,0h11.97s5.31,0,5.31,0v5.95h0v10.38h0l-.05-.06v8.86h0l-.21-.02-.14.04h-.13s-.3-.16-.3-.16l-.31-.31-.21-.42-.21-.31-.13-.09h-.1s-.32-.42-.32-.42l-.11-.22.06-.11v-.09s-.09-.21-.09-.21l.03-.2.13-.1.07-.18v-.29s-.07-.23-.07-.23l-.31-.75-.49-.65-.32-.35-.19-.15.09.03.48.42.32.44.14.28-.02-.15-.08-.23-.07-.1-.21-.24-.62-.59v-.19s.11-.04.11-.04l.13.12-.02.27.03.04.17-.02.05-.19.02-.29-.03-.21-.25-.13-.14.14-.1.03h-.1s-.09.03-.09.03l-.04.09.02.06.1.03.03.04-.08.1-.48-.04-.13.05-.11.13-.1.07-.64.03-.14-.11.11-.19.23-.12.27-.29.05-.29-.02-.07.02-.14.09-.19-.06-.35.04-.19v-.09s-.12-.19-.12-.19l-.28-.35-.1-.35-.22-.38h-.04s-.11.26-.11.26l.05.09-.03.09-.17.17-.06.21-.02.4-.22.73v.18s-.13.11-.13.11l-.25-.11-.13-.03h-.07s-.33.14-.33.14l-.07.12-.04.03-.25-.04-.14.12-.1.04-.06-.03-.05-.08.07-.11.12-.12.04-.1.03-.3.08-.12.15.06.15-.04h.16s.03.04.03.04l.15.07.09-.05.04-.09.08-.51-.03-.4.02-.4-.07-.27.03-.04h.09l.05-.1.09-.3v-.15s.32-.4.32-.4l.2-.2.07-.02.03-.08-.06-.25-.18-.34.05-.16.1-.07.09-.04h.11s.05-.04.05-.04v-.11s-.07-.1-.07-.1l-.1-.04-.1-.47-.09-.21-.05-.25-.09-.07v.34s.03.02.03.02l.04.07v.22s-.05.3-.05.3h-.09s-.22.08-.22.08l-.19.21-.18.36v.17s-.04.1-.04.1l-.27.5-.12.1h-.22s-.13-.07-.13-.07l-.12.17.03.02-.07.07-.5.27-.29.23-.1.1v.07s-.1.17-.1.17h0Zm2.84,3.29l.27.07.09.12v.11s-.13.12-.13.12l-.21-.1-.28-.02-.25.12-.03.05.02.15-.05.05-.23.11-.17-.18-.23-.04-.07.02-.02.08-.05.03-.21-.02-.23.04h-.33s-.06-.08-.06-.08l-.25-.21v-.08s.07-.24.07-.24l.65-.19h.14s.17-.04.17-.04l.35-.15.37.03.1.1v.18s.02.03.02.03l.17.02.17.1h.1s.11-.16.11-.16h0Z" style="fill:#105c90;"/><path id="AU-VIC" d="m64.85,56.05l-.22.11-.26.03h-.86s-.3.05-.3.05h-.29s-.33.01-.33.01l-.61.18-.36.18-.39.29-.3.28-.28.28-.43.5-.17.15-.4.05-.39.1-.14-.04h-.16s-.07.04-.07.04l-.06.09.2.36.2-.14.04-.14.06.03.03.61-.1.13-.06.03-.08-.04-.05-.07-.13-.34-.19-.23-.14-.06-.09.03-.02.07h-.17s-.14-.3-.14-.3l.04-.07-.06-.1-.16-.02-.12.08h-.09s-.07-.03-.07-.03l-.27-.27.03-.21.16-.07.06-.11-.12-.28-.07-.05-.33.02-.07.25-.32.33-.16.03h-.07s-.25-.3-.25-.3h.21l.19-.08.26-.46-.06-.21-.22-.34-.1-.05-.16.07-.24.23-.29.22-.25.03-.03.03v.08s.25.04.25.04l.14-.05.08-.06.12.03.03.07-.02.1-.09.14-.04.03-.15-.04-.27.06-.06.03-.53.36-.39.48-.2.05-.07.05-.04.1-.23.17-.07-.02-.11-.13-.1-.06-.37-.12-.08-.08-.15-.09-.14-.02-.3-.12-.47-.37-.28-.11-.2.05-.03.04h-.16s-.17-.1-.17-.1l-.17-.14-.25-.06h-.12s-.13.03-.13.03l-.1.09v.07l.05.11-.14.04-.21-.1-.15-.19-.31-.29-.16-.1-.24-.11h0v-8.86s.05.06.05.06h0l.08.08h.05s.3.04.3.04l.29.14.2.12.03.04.09-.05.1-.14.16-.06.26.07.28-.06.2.09.14.1.25.41v.31s.16.14.16.14l.09.25v.04s.06.07.06.07l.15.03.08-.1.06-.25.03-.04.1-.03.11.07.02.06.21.08.26.02.38.21.02.03v.14s-.04.21-.04.21l.05.27.08.18.13.08.14.04.07.11-.04.12.03.05.11.08.07-.02.13.05.27.21.3.16.14.19.18.16.1.03.04.04.09.21.37.43.22.13.07.02.31-.09-.03-.22.06-.22.03-.04.22-.06h.22l.06.05h.15s.15-.07.15-.07l.13-.03h.04s.13.11.13.11l.21.2.12.05.51.1.37.03.19-.08.06-.07h.11s.18.01.18.01l.16.12.39.12.24.02.3-.1h.16s.16-.22.16-.22l.16-.03.25.05.15-.06.3.13.19.12.09.72.11.14.16.33-.02.16-.14.25h.16s3.14,1.59,3.14,1.59h0l-.14.09-.2.02-.2.3-.16.08h0Zm-7.47,1.56l-.13-.05-.02-.1.04-.14.28.06.07.08-.02.03h-.11s-.12.12-.12.12h0Zm0,.31l-.06-.07-.09-.04-.27.02v-.02s.13-.12.13-.12l.16-.03.05.03.09.23h-.01s0,0,0,0Z" style="fill:#105c90;"/><path id="AU-QLD" d="m65.56,25.03v.03l.11.1-.09-.31-.12-.24v-.09s.07-.18.07-.18l.07-.09.08-.02.06.03.14.21.08.23.22.09.28.19.2.09-.1-.24v-.14s.05-.1.05-.1l.13.02.13.19-.05.12v.09s.25.34.25.34l-.11.76.1.21-.02.27.12.24.14.08.13.02.05.12.12.09.08.24.13.07h.06l.08.06.19.23.12.04.09.07-.03.04v.05s.06.02.06.02l.09-.08v-.1s.05-.04.05-.04l.08.02.18.21.26.23.14.4.22.35.26.2.25.1.09.1.05.13.02.23.29.48.24.07h.17s.07.3.07.3l-.02.17-.07.07v.23s.05.11.05.11l.06.06h.05s.09.25.09.25l.25.12v.05s-.08.18-.08.18l-.12.47.03.13.04.58.05.12.02.7-.11.03-.11.15.05.27.19.15.14.18.11.38.15.21.05.14-.04.27.09.22.08.11h0l-.13.11-.19.07-.24.04-.14.18-.29-.02-.33.03-.29-.06-.12-.12h-.08s-.1.07-.1.07l-.04.09-.07.05-.35.12-.2.1-.17.14.16.36-.06.33-.34.16-.11-.05-.07-.13-.3.14-.16.33-.08.09-.09.02-.04-.02-.07-.16-.02-.31-.45-.39-.45-.2-.27.06h-.29s-.12-.09-.12-.09l-.14-.14h-.05s-.24.02-.24.02l-.25.1-.54.05-.15-.05-.03-.06h-.05s-.2.05-.2.05l-.57.48-.21.26-.14.07h-13.85s-.21,0-.21,0h0v-5.95h-5.31V13.8h0l.34.28.17.07.35.08.27-.02.08.06.28.12.3.04.23.32.04.24.09.17.08.08.14.05.18.02.17.12.14.14.35.1.12.07.17.15.07.03h.2s.47-.07.47-.07l.24-.09.15-.08.24-.19.13-.05.09-.17.1-.38.03-.28.42-.55.16-.37.05-.27.2-.52-.05-.31.11-.67.31-.71.06-.22-.17-.48-.08-.51.03-.15.1-.26v-.2s-.03-.14-.03-.14l-.18-.21v-.22s.11-.53.11-.53l.26-.5-.02-.08-.08-.09-.08-.31v-.05s.04-.04.04-.04l.18-.11.07-.08.09-.24.11.03.06.1v.14s.08.11.08.11v-.08s-.08-.29-.08-.29l-.08-.06-.22-.32.05-.04-.03-.03h-.12s-.01.1-.01.1l.06.07-.1.03-.06-.03v-.04s.17-.36.17-.36l.15-.21-.03-.06.08-.23.08-.11.08-.03.04.22.19-.04v-.04s-.13-.14-.13-.14v-.07s.03-.21.03-.21l.27-.78.06-.4-.04-.31.02-.04.07-.05.28-.05.1-.13.08-.2h.13s.17.07.17.07l-.06.08-.12.11v.16s.1-.14.1-.14h.06s.24.21.24.21l.08.17.14.56-.05.22.05.37v.21s.18.17.18.17h.12s.12-.04.12-.04l.05.02.12.13-.17.28-.04.15v.2s.08.03.08.03h.06s.16.06.16.06l.05.05v.19s.08.08.08.08h.07s.12.1.12.1l-.1.23-.02.19.08.04.17-.02.02.04-.03.4.04.37v.07s.08.07.08.07l.05.1v.17s-.11.42-.11.42l.13.33.15.16.02.29.07.24.08.17.06.07.13.07h.22s.25-.19.25-.19l.5-.23.07-.16.07.02.11.17-.02.17.08.23.11.13.27.1h.12s.11.25.11.25l.44.2.19.15v.11s-.14.24-.14.24v.11s.08.12.08.12l.02.14-.07.21.1.2.1.33v.33l.09.09.09.22-.03.37-.07.09v.19s0,.05,0,.05l.09.06.6.75.06-.05.16-.03.04.05-.14.26v.06s.13.22.13.22l.14.32.09.35.03.26-.03.18.03.19v.12s-.17.35-.17.35v.18s.37.47.37.47l.22.08v.21s-.09.19-.09.19l-.02.2.02.06.1.14.15.12.04.08.21.14.16.07h.19s.22.22.22.22h.12s.21.07.21.07l.12.11.2.04.32-.02.03-.06-.08-.14.1.12.17.31.07.36.04.09.09.1.1.02.08-.02-.03-.15v-.07s.12,0,.12,0l.05.06.02.21.08.08.11.05h.22s.22.05.22.05l.14.17-.06.02v.05s.12.13.12.13l.14.11.09-.04v-.11s-.05-.05-.05-.05l.02-.07.12.05.27.24.17.03.06.08.11.32.07.02.05.15-.1-.02-.08-.09-.07-.03-.09.04-.13.16.11.29.21.22.13.09.19.07.23.18.1.12-.02.14.06.23.09.07.07.22.1.18.1.1-.02.36.16.58.12.3.11.16.08.06v.19s-.05.08-.05.08l.12-.06.09-.08.04-.07.28.34h0Zm5.49,6.22l-.08-.02-.07-.1-.1-.35.09-.23.12-.2v-.17s-.03-.04-.03-.04l.07-.15.18-.15.08-.16v-.09s0-.07,0-.07l-.11-.17-.03-.02.07-.12.15-.1v.4s.06.09.06.09l.08.06.02.07-.43,1.02-.08.26.03.16-.03.09h0Zm-24.64-17.07l-.02-.11.05-.19.1-.14.15-.11.31-.04.1-.05.34.06v.11s-.07.04-.07.04l-.12.02-.08-.06-.16.07.03.06-.11.18-.2.07-.26.05s-.06.05-.06.05Zm21.36,13.18l-.1-.09-.07-.15-.12-.11-.07-.15-.02-.13.08-.02.25.16.03.06.11.22.02.15-.05.06h-.08s0,.01,0,.01Zm-8.73-9.98l-.12-.05-.03-.17-.08-.11-.08-.04-.04-.08.07-.02.25.12.15.21-.05.1-.06.03h0Zm12.59,17.69l-.03-.07v-.17s.08-.39.08-.39l.07-.02.12.02-.12.39-.04.22h-.08Zm.03-.73l-.12-.33v-.27l.15-.08.04.03-.09.35.02.3h0ZM51.77,3.34l-.11-.09v-.11s.1-.07.1-.07h.07s.09.12.09.12v.07s-.1.02-.1.02l-.05.07h0Zm.17-.9l-.12-.05-.04-.06.07-.1.1-.02.06.03.04.07-.11.13Zm-5.04,12.45l-.05-.11.18-.17.09.07.03.14h-.21s-.04.07-.04.07h0Z" style="fill:#105c90;"/><path id="AU-TAS" d="m60.14,69.73l-.15.07-.03-.07-.23-.04-.15-.12-.15-.03-.39-.02-.04-.03-.03-.07h-.05s-.21.05-.21.05l-.13-.04-.19-.29.1-.07.2.03.1.05.13.03v-.16s-.12-.1-.12-.1l-.07.12-.47-.06-.04-.03-.19-.4-.23-.37-.04-.04h-.11s-.09-.14-.09-.14l-.07-.14-.12-.45-.08-.08-.09-.03-.11-.71v-.14s.05-.04.05-.04l.05.08.31.24.08.36.15-.41-.09-.07h-.07s-.31-.34-.31-.34l-.03-.1v-.14s-.02-.11-.02-.11l-.11-.23-.23-.22-.18-.31-.48-1.17.02-.08-.05-.25-.05-.1-.03-.23.14-.13v-.27s.11-.07.11-.07l.4.05.23.17.28-.05.11.09.36.12.59.35.57.27.37.03.17-.05.15.09v-.08s.13-.15.13-.15l.13-.04.09.03.04.15.09.05h.15s-.05-.08-.05-.08l-.12-.03-.04-.03v-.11s.07-.07.07-.07l.27-.12.23.08.37-.07.11.1.13-.08.18-.31.04-.02.11-.03.04.06.18.08h.06s.11-.07.11-.07l.06-.1.03-.14.04-.04h.07s.12.06.12.06l.25.19.09.12.1.22-.11.4v.12s.09.1.09.1v.18s-.07.28-.07.28v.2s.07.17.07.17l-.09.48.06.52.11.17v.27s-.08.13-.08.13l-.06-.05v-.06s.04-.06.04-.06l.02-.16-.13-.34-.08-.13-.21.41-.13.97-.08.08-.03.14.02.25-.13.13-.07.24.02.04h.08s-.03-.07-.03-.07l.05-.04.11.07.05.09v.17s-.06.04-.06.04l-.03.21.09.21-.02.14h-.04s-.13-.11-.13-.11l-.13.06-.07.1-.16-.2-.12-.24-.02-.12.1-.17.06-.02.04.04v.06s-.02.06-.02.06l.11.12h.15s.06-.06.06-.06l-.13-.23-.41-.25h-.06s-.1.08-.1.08l.03.16.06.12-.05.09-.17.06-.04-.1.03-.02-.03-.24-.16-.1.06.14-.04.25-.1.13-.05.18.04.17-.03.16-.06.04h-.06s-.14-.1-.14-.1l-.13-.15-.02-.15h-.04s-.04.05-.04.05v.16s.22.2.22.2l-.07.18-.09.14-.09.26-.03.18-.04.03Zm2.14-7.92l-.16-.09-.05-.17v-.05s-.19-.38-.19-.38l-.25-.22.22-.28.15-.07.35.47.07.05.14.04v.07s.1.45.1.45v.06s-.06.05-.06.05l-.22.04-.09.04Zm-7.44-.32l-.06-.05-.02-.12.03-.02v-.16l-.1-.13v-.13s.04-.37.04-.37l.14-.1.02-.06-.02-.13.07-.02.16.1.07.11.02.37.04.24-.02.13-.05.12-.33.23Zm7.81.85v-.11s-.04-.05-.04-.05l-.41.05-.16-.07v-.09s.12-.1.12-.1h.12s.12.03.12.03l.25-.13.24.29v.02s-.13.05-.13.05l-.12.1Zm-1.83,7.14l-.11-.05-.11.02-.09-.19.31-.39.11.3-.08.28-.03.03Zm.1-.61l-.12-.26.11-.2.07.11.06.29v.03s-.13.02-.13.02Zm1.15-1.23v-.32s.11-.08.11-.08h.09s.08.16.08.16v.02s-.13,0-.13,0l-.15.21Zm-5.53-4.78l-.03-.02v-.11s.1-.13.1-.13l.16.18-.23.08Z" style="fill:#105c90;"/></svg>